<svg width="12" height="12" viewBox="0 0 12 12" fill="none" xmlns="http://www.w3.org/2000/svg">
<g clip-path="url(#clip0_1_16)">
<path d="M11.8711 9.1008C11.4244 8.25634 9.87319 7.34069 9.80489 7.30065C9.60557 7.18719 9.39756 7.12713 9.20291 7.12713C8.91349 7.12713 8.67657 7.25971 8.53308 7.50086C8.30617 7.77226 8.02476 8.08949 7.95646 8.13866C7.42789 8.49726 7.01411 8.45655 6.55629 7.99873L4.0011 5.44332C3.54617 4.98839 3.50434 4.56949 3.8605 4.04382C3.91034 3.97508 4.22757 3.69344 4.49897 3.46631C4.67204 3.36331 4.79084 3.21025 4.84289 3.0225C4.91208 2.77267 4.86114 2.4788 4.69785 2.19249C4.65936 2.12665 3.74327 0.575201 2.89925 0.128721C2.74175 0.0452985 2.56422 0.00125122 2.38625 0.00125122C2.09305 0.00125122 1.8172 0.115596 1.60987 0.322708L1.04526 0.887092C0.1523 1.77983 -0.170937 2.7918 0.084004 3.89477C0.296677 4.81398 0.916454 5.79214 1.92643 6.80189L5.19772 10.0732C6.47598 11.3514 7.69462 11.9997 8.81983 11.9997C8.81983 11.9997 8.81983 11.9997 8.82005 11.9997C9.64761 11.9997 10.4191 11.648 11.1125 10.9546L11.6769 10.3902C12.0199 10.0474 12.0978 9.52904 11.8711 9.1008Z" fill="#4285F4"/>
</g>
<defs>
<clipPath id="clip0_1_16">
<rect width="12" height="12" fill="white"/>
</clipPath>
</defs>
</svg>
