<svg width="12" height="13" viewBox="0 0 12 13" fill="none" xmlns="http://www.w3.org/2000/svg">
<g clip-path="url(#clip0_1_34)">
<path d="M10.9145 0.5H1.0855C0.486 0.5 0 0.986 0 1.5855V11.4145C0 12.014 0.486 12.5 1.0855 12.5H10.9145C11.514 12.5 12 12.014 12 11.4145V1.5855C12 0.986 11.514 0.5 10.9145 0.5ZM3.71331 10.8616C3.71331 11.0361 3.57188 11.1775 3.39741 11.1775H2.05272C1.87825 11.1775 1.73683 11.0361 1.73683 10.8616V5.2247C1.73683 5.05023 1.87825 4.90881 2.05272 4.90881H3.39741C3.57188 4.90881 3.71331 5.05023 3.71331 5.2247V10.8616ZM2.72507 4.37744C2.01955 4.37744 1.4476 3.8055 1.4476 3.09998C1.4476 2.39446 2.01955 1.82251 2.72507 1.82251C3.43059 1.82251 4.00253 2.39446 4.00253 3.09998C4.00253 3.8055 3.43062 4.37744 2.72507 4.37744ZM10.7406 10.887C10.7406 11.0474 10.6106 11.1775 10.4502 11.1775H9.00723C8.84683 11.1775 8.71677 11.0474 8.71677 10.887V8.24302C8.71677 7.84859 8.83247 6.51461 7.686 6.51461C6.79671 6.51461 6.61633 7.42767 6.58011 7.83743V10.887C6.58011 11.0474 6.45009 11.1775 6.28966 11.1775H4.89408C4.73369 11.1775 4.60363 11.0474 4.60363 10.887V5.19926C4.60363 5.03886 4.73369 4.90881 4.89408 4.90881H6.28966C6.45006 4.90881 6.58011 5.03886 6.58011 5.19926V5.69104C6.90986 5.19618 7.39992 4.81422 8.44332 4.81422C10.7539 4.81422 10.7406 6.97284 10.7406 8.15889V10.887Z" fill="#4285F4"/>
</g>
<defs>
<clipPath id="clip0_1_34">
<rect width="12" height="12" fill="white" transform="translate(0 0.5)"/>
</clipPath>
</defs>
</svg>
